<?xml version="1.0" encoding="UTF-8"?>
<svg xmlns="http://www.w3.org/2000/svg" viewBox="0 0 556.16 516.14">
  <defs>
    <style>
      .cls-1 {
        fill: gray;
      }

      .cls-2 {
        isolation: isolate;
      }

      .cls-3, .cls-4 {
        fill: none;
        stroke: gray;
        stroke-miterlimit: 10;
      }

      .cls-5, .cls-6 {
        mix-blend-mode: overlay;
      }

      .cls-4 {
        stroke-width: .74px;
      }

      .cls-6 {
        opacity: .1;
      }
    </style>
  </defs>
  <g class="cls-2">
    <g id="_图层_2" data-name="图层_2">
      <g id="Objects">
        <g>
          <g class="cls-6">
            <g>
              <polygon class="cls-1" points="251.93 60.16 269.04 89.78 286.14 60.16 251.93 60.16"/>
              <polygon class="cls-1" points="251.93 28.16 269.04 57.78 286.14 28.16 251.93 28.16"/>
            </g>
            <g>
              <polygon class="cls-1" points="173.75 165.18 221.48 247.86 269.22 165.18 173.75 165.18"/>
              <polygon class="cls-1" points="173.75 75.89 221.48 158.56 269.22 75.89 173.75 75.89"/>
            </g>
          </g>
          <g class="cls-5">
            <g>
              <polygon class="cls-3" points="256.03 161.53 271.62 188.53 287.2 161.53 256.03 161.53"/>
              <polygon class="cls-3" points="256.03 190.97 271.62 217.97 287.2 190.97 256.03 190.97"/>
              <polygon class="cls-3" points="256.03 132.37 271.62 159.37 287.2 132.37 256.03 132.37"/>
            </g>
          </g>
          <g>
            <path class="cls-4" d="M340.12,515.77v-138.17c-4.55-.48-8.1-4.33-8.1-9.01s3.55-8.53,8.1-9.01v-94.95c0-16.9,10.65-31.35,25.59-37.01h-146.41c-20.41,0-37.01,16.6-37.01,37.01v18.43c4.63.41,8.26,4.29,8.26,9.03s-3.63,8.62-8.26,9.03v103.5h-2.56v-103.63c-4.17-.82-7.31-4.49-7.31-8.89s3.15-8.08,7.31-8.89v-18.57c0-21.82,17.75-39.56,39.56-39.56h190.22c.46-4.58,4.32-8.15,9.02-8.15s8.56,3.57,9.02,8.15h116.43v2.56h-116.54c-.77,4.22-4.46,7.43-8.91,7.43s-8.14-3.2-8.91-7.43h-29.95c-20.4,0-37,16.6-37,37.01v95.04c4.25.75,7.48,4.45,7.48,8.92s-3.23,8.17-7.48,8.92v138.26h-2.56Z"/>
            <path class="cls-4" d="M250.05,203.77H107.51c-.58,4.45-4.37,7.89-8.98,7.89s-8.4-3.44-8.98-7.89H.37v-2.56h89.2c.67-4.35,4.41-7.68,8.95-7.68s8.28,3.33,8.95,7.68h142.61c.67-4.35,4.41-7.68,8.95-7.68s8.28,3.33,8.95,7.68h287.81v2.56h-287.78c-.58,4.45-4.37,7.89-8.98,7.89s-8.41-3.44-8.98-7.89Z"/>
            <path class="cls-4" d="M344.27,182.91h-188.02c-21.81,0-39.56-17.75-39.56-39.56v-53.66c-4.13-.85-7.24-4.5-7.24-8.88s3.11-8.04,7.24-8.88V.37h2.56v71.4c4.67.37,8.34,4.27,8.34,9.03s-3.67,8.66-8.34,9.03v53.51c0,20.4,16.6,37,37,37h187.94c.51-4.52,4.34-8.04,9-8.04s8.5,3.52,9.01,8.04h178.4v2.56h-178.48c-.73,4.28-4.44,7.54-8.93,7.54s-8.2-3.26-8.93-7.54Z"/>
          </g>
        </g>
      </g>
    </g>
  </g>
</svg>