<?xml version="1.0" encoding="UTF-8"?>
<svg xmlns="http://www.w3.org/2000/svg" xmlns:xlink="http://www.w3.org/1999/xlink" viewBox="0 0 555.42 780.43">
  <defs>
    <style>
      .cls-1, .cls-2, .cls-3 {
        fill: none;
      }

      .cls-4 {
        fill: gray;
      }

      .cls-5 {
        fill: url(#radial-gradient-3);
      }

      .cls-6 {
        fill: url(#radial-gradient-2);
      }

      .cls-7 {
        fill: url(#linear-gradient-3);
      }

      .cls-8 {
        fill: url(#linear-gradient-2);
      }

      .cls-9 {
        fill: url(#radial-gradient);
      }

      .cls-10 {
        fill: url(#linear-gradient);
      }

      .cls-11 {
        opacity: .3;
      }

      .cls-11, .cls-12 {
        mix-blend-mode: soft-light;
      }

      .cls-2 {
        stroke-width: 5px;
      }

      .cls-2, .cls-3 {
        stroke: gray;
        stroke-miterlimit: 10;
      }

      .cls-13 {
        isolation: isolate;
      }
    </style>
    <radialGradient id="radial-gradient" cx="-1699.48" cy="2175.46" fx="-1699.48" fy="2175.46" r="546.22" gradientTransform="translate(-1969.69 1969.69) rotate(90) scale(1 -1)" gradientUnits="userSpaceOnUse">
      <stop offset="0" stop-color="#fff"/>
      <stop offset=".03" stop-color="#f3f3f3" stop-opacity=".9"/>
      <stop offset=".1" stop-color="#dcdcdc" stop-opacity=".71"/>
      <stop offset=".17" stop-color="#c8c8c8" stop-opacity=".54"/>
      <stop offset=".24" stop-color="#b6b6b6" stop-opacity=".4"/>
      <stop offset=".33" stop-color="#a7a7a7" stop-opacity=".27"/>
      <stop offset=".41" stop-color="#9b9b9b" stop-opacity=".17"/>
      <stop offset=".51" stop-color="#929292" stop-opacity=".1"/>
      <stop offset=".62" stop-color="#8b8b8b" stop-opacity=".04"/>
      <stop offset=".76" stop-color="#888" stop-opacity="0"/>
      <stop offset="1" stop-color="#878787" stop-opacity="0"/>
    </radialGradient>
    <radialGradient id="radial-gradient-2" cx="-1699.48" cy="2175.46" fx="-1699.48" fy="2175.46" r="546.22" xlink:href="#radial-gradient"/>
    <radialGradient id="radial-gradient-3" cx="-1699.48" cy="2175.46" fx="-1699.48" fy="2175.46" r="546.22" xlink:href="#radial-gradient"/>
    <linearGradient id="linear-gradient" x1="-1590.22" y1="1617.1" x2="-1218.65" y2="1617.1" gradientTransform="translate(-1046.6 1766.53) rotate(-180)" gradientUnits="userSpaceOnUse">
      <stop offset="0" stop-color="#878787" stop-opacity="0"/>
      <stop offset=".11" stop-color="#898989" stop-opacity=".02"/>
      <stop offset=".24" stop-color="#8f8f8f" stop-opacity=".07"/>
      <stop offset=".37" stop-color="#999" stop-opacity=".16"/>
      <stop offset=".5" stop-color="#a8a8a8" stop-opacity=".28"/>
      <stop offset=".64" stop-color="#bbb" stop-opacity=".43"/>
      <stop offset=".78" stop-color="#d1d1d1" stop-opacity=".62"/>
      <stop offset=".91" stop-color="#ececec" stop-opacity=".85"/>
      <stop offset="1" stop-color="#fff"/>
    </linearGradient>
    <linearGradient id="linear-gradient-2" x1="-1602.02" y1="1453.35" x2="-1046.6" y2="1453.35" xlink:href="#linear-gradient"/>
    <linearGradient id="linear-gradient-3" x1="-1586.85" y1="1350.16" x2="-1155.69" y2="1350.16" xlink:href="#linear-gradient"/>
  </defs>
  <g class="cls-13">
    <g id="_图层_2" data-name="图层_2">
      <g id="Objects">
        <line class="cls-1" x1="282.31" y1="446.28" x2="388.12" y2="340.46"/>
        <g>
          <line class="cls-2" x1="161.16" y1="482.55" x2="163.66" y2="482.55"/>
          <path class="cls-4" d="M434.4,485.05v-5h4.92v5h-4.92ZM414.71,485.05v-5h4.92v5h-4.92ZM395.02,485.05v-5h4.92v5h-4.92ZM375.33,485.05v-5h4.92v5h-4.92ZM355.64,485.05v-5h4.92v5h-4.92ZM335.95,485.05v-5h4.92v5h-4.92ZM316.26,485.05v-5h4.92v5h-4.92ZM296.57,485.05v-5h4.92v5h-4.92ZM276.88,485.05v-5h4.92v5h-4.92ZM257.19,485.05v-5h4.92v5h-4.92ZM237.5,485.05v-5h4.92v5h-4.92ZM217.81,485.05v-5h4.92v5h-4.92ZM198.12,485.05v-5h4.92v5h-4.92ZM178.43,485.05v-5h4.92v5h-4.92Z"/>
          <line class="cls-2" x1="454.09" y1="482.55" x2="456.59" y2="482.55"/>
        </g>
        <g class="cls-11">
          <g>
            <polygon class="cls-4" points="295.26 515.89 280.66 490.62 266.07 515.89 295.26 515.89"/>
            <polygon class="cls-4" points="295.26 543.2 280.66 517.92 266.07 543.2 295.26 543.2"/>
          </g>
          <g>
            <polygon class="cls-4" points="358.26 439.21 327.99 386.78 297.72 439.21 358.26 439.21"/>
            <polygon class="cls-4" points="358.26 495.83 327.99 443.41 297.72 495.83 358.26 495.83"/>
          </g>
        </g>
        <g class="cls-12">
          <g>
            <polygon class="cls-3" points="267.36 510.2 255.22 489.18 243.09 510.2 267.36 510.2"/>
            <polygon class="cls-3" points="304.86 544.7 292.72 523.67 280.58 544.7 304.86 544.7"/>
          </g>
          <g>
            <polygon class="cls-3" points="321.34 411.2 285.39 348.93 249.43 411.2 321.34 411.2"/>
            <polygon class="cls-3" points="321.34 478.45 285.39 416.19 249.43 478.45 321.34 478.45"/>
          </g>
        </g>
        <g>
          <path class="cls-9" d="M515.7,440.68h-138.17c-.48,4.55-4.33,8.1-9.01,8.1s-8.53-3.55-9.01-8.1h-94.95c-16.89,0-31.35-10.65-37.01-25.59v146.41c0,20.41,16.6,37.01,37.01,37.01h18.43c.41-4.63,4.29-8.26,9.03-8.26s8.62,3.63,9.03,8.26h103.5v2.56h-103.63c-.82,4.17-4.49,7.31-8.89,7.31s-8.08-3.15-8.89-7.31h-18.57c-21.81,0-39.56-17.75-39.56-39.56v-164.31h0v-25.92c-4.58-.46-8.15-4.32-8.15-9.02s3.57-8.56,8.15-9.02v-116.43h2.56v116.54c4.22.77,7.43,4.46,7.43,8.91s-3.2,8.14-7.43,8.91v29.95c0,20.4,16.6,37,37.01,37h95.04c.75-4.25,4.45-7.48,8.92-7.48s8.17,3.23,8.92,7.48h138.26v2.56Z"/>
          <path class="cls-6" d="M203.69,530.75v142.54c4.45.58,7.89,4.37,7.89,8.98s-3.44,8.4-7.89,8.98v89.17h-2.56v-89.2c-4.35-.67-7.68-4.41-7.68-8.95s3.33-8.28,7.68-8.95v-142.61c-4.35-.67-7.68-4.41-7.68-8.95s3.33-8.28,7.68-8.95V225.01h2.56v287.78c4.45.58,7.89,4.37,7.89,8.98s-3.44,8.41-7.89,8.98Z"/>
          <path class="cls-5" d="M182.83,436.52v188.02c0,21.81-17.75,39.56-39.56,39.56h-53.66c-.85,4.13-4.5,7.24-8.88,7.24s-8.04-3.11-8.88-7.24H8.29v-2.56h63.4c.37-4.67,4.27-8.34,9.03-8.34s8.66,3.67,9.03,8.34h53.51c20.4,0,37-16.6,37-37v-187.94c-4.52-.51-8.04-4.34-8.04-9s3.52-8.5,8.04-9.01v-178.4h2.56v178.48c4.28.73,7.54,4.44,7.54,8.93s-3.26,8.2-7.54,8.93Z"/>
        </g>
        <g>
          <path class="cls-10" d="M339.75,0v138.17c-4.55.48-8.1,4.33-8.1,9.01s3.55,8.53,8.1,9.01v94.95c0,16.89,10.65,31.35,25.59,37.01h-146.41c-20.41,0-37.01-16.6-37.01-37.01v-18.43c4.63-.41,8.26-4.29,8.26-9.03s-3.63-8.62-8.26-9.03v-103.5h-2.56v103.63c-4.17.82-7.31,4.49-7.31,8.89s3.15,8.08,7.31,8.89v18.57c0,21.81,17.75,39.56,39.56,39.56h190.22c.46,4.58,4.32,8.15,9.02,8.15s8.56-3.57,9.02-8.15h116.43v-2.56h-116.54c-.77-4.22-4.46-7.43-8.91-7.43s-8.14,3.2-8.91,7.43h-29.95c-20.4,0-37-16.6-37-37.01v-95.04c4.25-.75,7.48-4.45,7.48-8.92s-3.23-8.17-7.48-8.92V0h-2.56Z"/>
          <path class="cls-8" d="M249.68,312.01H107.14c-.58-4.45-4.37-7.89-8.98-7.89s-8.4,3.44-8.98,7.89H0v2.56h89.2c.67,4.35,4.41,7.68,8.95,7.68s8.28-3.33,8.95-7.68h142.61c.67,4.35,4.41,7.68,8.95,7.68s8.28-3.33,8.95-7.68h287.81v-2.56h-287.77c-.58-4.45-4.37-7.89-8.98-7.89s-8.41,3.44-8.98,7.89Z"/>
          <path class="cls-7" d="M343.91,332.87h-188.02c-21.81,0-39.56,17.75-39.56,39.56v53.66c-4.13.85-7.24,4.5-7.24,8.88s3.11,8.04,7.24,8.88v63.55h2.56v-63.4c4.67-.37,8.34-4.27,8.34-9.03s-3.67-8.66-8.34-9.03v-53.51c0-20.4,16.6-37,37-37h187.94c.51,4.52,4.34,8.04,9,8.04s8.5-3.52,9.01-8.04h178.4v-2.56h-178.48c-.73-4.28-4.44-7.54-8.93-7.54s-8.2,3.26-8.93,7.54Z"/>
        </g>
      </g>
    </g>
  </g>
</svg>