<?xml version="1.0" encoding="UTF-8"?>
<svg xmlns="http://www.w3.org/2000/svg" xmlns:xlink="http://www.w3.org/1999/xlink" viewBox="0 0 816.55 816.54">
  <defs>
    <style>
      .cls-1 {
        fill: gray;
      }

      .cls-2 {
        fill: url(#radial-gradient-7);
      }

      .cls-3 {
        fill: url(#radial-gradient-6);
      }

      .cls-4 {
        fill: url(#radial-gradient-5);
      }

      .cls-5 {
        fill: url(#radial-gradient-4);
      }

      .cls-6 {
        fill: url(#radial-gradient-8);
      }

      .cls-7 {
        fill: url(#radial-gradient-3);
      }

      .cls-8 {
        fill: url(#radial-gradient-2);
      }

      .cls-9 {
        fill: url(#radial-gradient);
      }

      .cls-10 {
        isolation: isolate;
      }

      .cls-11 {
        opacity: .8;
      }

      .cls-12 {
        mix-blend-mode: soft-light;
      }
    </style>
    <radialGradient id="radial-gradient" cx="-2942.46" cy="3648.97" fx="-2942.46" fy="3648.97" r="918.5" gradientTransform="translate(-3233.93 3019.45) rotate(90) scale(.89 -.89)" gradientUnits="userSpaceOnUse">
      <stop offset="0" stop-color="gray"/>
      <stop offset=".17" stop-color="gray" stop-opacity=".8"/>
      <stop offset=".55" stop-color="gray" stop-opacity=".37"/>
      <stop offset=".84" stop-color="gray" stop-opacity=".1"/>
      <stop offset="1" stop-color="gray" stop-opacity="0"/>
    </radialGradient>
    <radialGradient id="radial-gradient-2" cx="-2922.29" cy="3461.78" fx="-2922.29" fy="3461.78" r="886.91" gradientTransform="translate(-3273.83 3166.17) rotate(90) scale(.94 -.94)" xlink:href="#radial-gradient"/>
    <radialGradient id="radial-gradient-3" cx="-2922.29" cy="3461.78" fx="-2922.29" fy="3461.78" r="886.91" gradientTransform="translate(-3273.83 3166.17) rotate(90) scale(.94 -.94)" xlink:href="#radial-gradient"/>
    <radialGradient id="radial-gradient-4" cx="-2922.29" cy="3461.78" fx="-2922.29" fy="3461.78" r="886.91" gradientTransform="translate(-3273.83 3166.17) rotate(90) scale(.94 -.94)" xlink:href="#radial-gradient"/>
    <radialGradient id="radial-gradient-5" cx="-2922.3" cy="3461.78" fx="-2922.3" fy="3461.78" r="886.92" gradientTransform="translate(-3273.83 3166.17) rotate(90) scale(.94 -.94)" xlink:href="#radial-gradient"/>
    <radialGradient id="radial-gradient-6" cx="-2922.29" cy="3461.78" fx="-2922.29" fy="3461.78" r="886.91" gradientTransform="translate(-3273.83 3166.17) rotate(90) scale(.94 -.94)" xlink:href="#radial-gradient"/>
    <radialGradient id="radial-gradient-7" cx="-2922.29" cy="3461.78" fx="-2922.29" fy="3461.78" r="886.92" gradientTransform="translate(-3273.83 3166.17) rotate(90) scale(.94 -.94)" xlink:href="#radial-gradient"/>
    <radialGradient id="radial-gradient-8" cx="-2922.29" cy="3461.78" fx="-2922.29" fy="3461.78" r="886.91" gradientTransform="translate(-3273.83 3166.17) rotate(90) scale(.94 -.94)" xlink:href="#radial-gradient"/>
  </defs>
  <g class="cls-10">
    <g id="_图层_2" data-name="图层_2">
      <g id="Objects">
        <g class="cls-12">
          <g class="cls-11">
            <path class="cls-9" d="M784.47,567.19c-20.56,48.62-50,92.29-87.5,129.77-37.49,37.5-81.15,66.94-129.77,87.5-50.33,21.29-103.8,32.08-158.92,32.08s-108.59-10.79-158.93-32.08c-48.62-20.56-92.28-50-129.77-87.5-37.5-37.49-66.93-81.16-87.5-129.77C10.79,516.86,0,463.39,0,408.28s10.79-108.59,32.08-158.92c20.56-48.62,50-92.28,87.5-129.78,37.5-37.49,81.16-66.93,129.78-87.49C299.69,10.79,353.16,0,408.28,0s108.58,10.79,158.92,32.08c48.62,20.56,92.28,50,129.77,87.49,37.5,37.5,66.94,81.16,87.5,129.78,21.29,50.34,32.08,103.8,32.08,158.92s-10.8,108.58-32.08,158.91ZM408.28,815.56c224.58,0,407.29-182.71,407.29-407.29S632.86.98,408.28.98.98,183.69.98,408.28c0,224.58,182.71,407.29,407.3,407.29Z"/>
            <path class="cls-8" d="M656.07,656.07c-66.19,66.19-154.19,102.64-247.79,102.64s-181.61-36.45-247.8-102.64c-66.19-66.19-102.64-154.19-102.64-247.79s36.45-181.61,102.64-247.8c66.19-66.19,154.19-102.64,247.8-102.64s181.61,36.45,247.79,102.64c66.19,66.19,102.64,154.19,102.64,247.8s-36.45,181.6-102.64,247.79ZM408.28,757.7c192.67,0,349.42-156.75,349.42-349.42S600.95,58.85,408.28,58.85,58.85,215.6,58.85,408.28s156.75,349.42,349.43,349.42Z"/>
            <path class="cls-7" d="M634.26,634.26c-60.36,60.36-140.62,93.6-225.98,93.6s-165.63-33.25-225.99-93.6c-60.36-60.36-93.61-140.62-93.61-225.99s33.25-165.62,93.61-225.99c60.37-60.36,140.62-93.61,225.99-93.61s165.62,33.24,225.98,93.61c60.36,60.36,93.61,140.62,93.61,225.99s-33.25,165.62-93.61,225.99ZM408.28,726.85c175.66,0,318.58-142.91,318.58-318.58S583.95,89.69,408.28,89.69,89.69,232.61,89.69,408.28c0,175.66,142.92,318.58,318.59,318.58Z"/>
            <path class="cls-5" d="M615.76,615.75c-55.42,55.42-129.1,85.94-207.48,85.94s-152.07-30.52-207.49-85.94c-55.42-55.42-85.94-129.1-85.94-207.48,0-78.38,30.52-152.06,85.94-207.48,55.42-55.42,129.1-85.94,207.49-85.94s152.06,30.52,207.48,85.94,85.94,129.11,85.94,207.48-30.52,152.06-85.94,207.48ZM408.28,700.68c161.23,0,292.4-131.17,292.4-292.4S569.51,115.86,408.28,115.86,115.86,247.04,115.86,408.28c0,161.23,131.18,292.4,292.42,292.4Z"/>
            <path class="cls-4" d="M597.85,597.84c-50.64,50.63-117.96,78.52-189.57,78.52s-138.94-27.88-189.57-78.52c-50.63-50.63-78.52-117.96-78.52-189.56s27.89-138.93,78.52-189.57c50.63-50.63,117.96-78.52,189.57-78.52s138.93,27.89,189.57,78.52c50.63,50.64,78.51,117.96,78.51,189.57s-27.88,138.93-78.51,189.56ZM408.28,675.35c147.27,0,267.08-119.82,267.08-267.07s-119.81-267.08-267.08-267.08-267.09,119.81-267.09,267.08,119.81,267.07,267.09,267.07Z"/>
            <path class="cls-3" d="M582.32,582.32c-46.49,46.49-108.3,72.09-174.04,72.09s-127.57-25.6-174.05-72.09c-46.49-46.49-72.09-108.3-72.09-174.04s25.6-127.56,72.09-174.05c46.49-46.49,108.3-72.09,174.05-72.09s127.56,25.6,174.04,72.09c46.49,46.49,72.09,108.3,72.09,174.05s-25.6,127.55-72.09,174.04ZM408.28,653.4c135.16,0,245.13-109.96,245.13-245.13s-109.96-245.13-245.13-245.13-245.13,109.96-245.13,245.13,109.96,245.13,245.13,245.13Z"/>
            <path class="cls-2" d="M566.17,566.16c-42.17,42.17-98.24,65.4-157.89,65.4s-115.72-23.23-157.89-65.4c-42.17-42.17-65.4-98.25-65.4-157.88s23.22-115.72,65.4-157.89c42.17-42.17,98.24-65.4,157.89-65.4s115.71,23.23,157.89,65.4c42.17,42.17,65.4,98.24,65.4,157.89s-23.23,115.71-65.4,157.88ZM408.28,630.54c122.56,0,222.27-99.71,222.27-222.27s-99.71-222.28-222.27-222.28-222.28,99.71-222.28,222.28,99.71,222.27,222.28,222.27Z"/>
            <path class="cls-6" d="M408.28,613.28c-113.05,0-205.02-91.96-205.02-205.01s91.97-205.01,205.02-205.01,205.01,91.97,205.01,205.01-91.97,205.01-205.01,205.01ZM408.28,612.27c112.49,0,204-91.51,204-204s-91.51-204-204-204-204.01,91.51-204.01,204,91.52,204,204.01,204Z"/>
          </g>
          <path class="cls-1" d="M791.43,411.73l-11.95-.1c0-.87.01-1.74.01-2.61l11.95.02c0,.9,0,1.8-.01,2.7ZM779.47,403.79c-.01-.87-.02-1.74-.04-2.61l11.94-.23c.02.9.03,1.8.04,2.7l-11.95.14ZM791.27,419.8l-11.94-.35c.03-.87.05-1.74.07-2.6l11.94.26c-.02.9-.04,1.79-.07,2.69ZM779.3,395.95c-.03-.87-.06-1.74-.09-2.61l11.93-.47c.04.9.07,1.8.1,2.7l-11.94.38ZM790.95,427.86l-11.93-.6c.04-.87.09-1.74.12-2.61l11.94.52c-.04.9-.08,1.79-.13,2.69ZM778.96,388.12c-.04-.87-.09-1.74-.15-2.61l11.92-.72c.05.9.11,1.79.15,2.7l-11.93.63ZM790.46,435.94l-11.91-.86c.06-.87.12-1.74.18-2.6l11.92.77c-.06.9-.12,1.8-.18,2.69ZM778.47,380.3c-.07-.87-.13-1.74-.2-2.61l11.9-.96c.07.89.14,1.79.21,2.68l-11.91.89ZM789.8,444l-11.89-1.1c.08-.86.15-1.73.23-2.6l11.9,1.01c-.08.9-.15,1.79-.24,2.69ZM777.8,372.49c-.08-.87-.17-1.73-.26-2.6l11.88-1.23c.09.89.18,1.79.26,2.69l-11.89,1.14ZM788.97,452.04l-11.87-1.35c.1-.87.2-1.73.29-2.6l11.88,1.26c-.09.89-.19,1.79-.29,2.68ZM776.97,364.7c-.1-.87-.2-1.73-.31-2.59l11.86-1.47c.11.89.22,1.79.32,2.68l-11.87,1.38ZM787.98,460.06l-11.84-1.6c.12-.87.23-1.73.34-2.59l11.84,1.52c-.11.89-.23,1.78-.35,2.67ZM775.98,356.93c-.12-.86-.24-1.73-.37-2.59l11.82-1.72c.13.89.26,1.77.38,2.66l-11.83,1.64ZM786.81,468.07l-11.8-1.86c.13-.86.27-1.72.39-2.58l11.81,1.77c-.13.89-.27,1.78-.41,2.67ZM774.83,349.18c-.14-.86-.28-1.72-.42-2.58l11.78-1.98c.15.89.29,1.77.44,2.66l-11.79,1.89ZM785.47,476.05l-11.76-2.1c.15-.86.3-1.71.45-2.57l11.77,2.01c-.15.89-.31,1.77-.47,2.66ZM773.5,341.45c-.15-.86-.31-1.71-.47-2.56l11.73-2.22c.17.88.33,1.77.49,2.65l-11.75,2.13ZM783.96,483.99l-11.71-2.35c.17-.85.34-1.71.5-2.56l11.73,2.26c-.17.88-.34,1.77-.52,2.65ZM772.02,333.76c-.17-.85-.35-1.7-.53-2.55l11.69-2.47c.18.88.37,1.76.55,2.64l-11.71,2.38ZM782.29,491.9l-11.66-2.59c.19-.85.38-1.7.56-2.55l11.68,2.52c-.19.88-.38,1.76-.58,2.63ZM770.38,326.1c-.19-.85-.39-1.7-.59-2.55l11.63-2.71c.2.87.41,1.75.6,2.62l-11.65,2.64ZM780.45,499.78l-11.6-2.84c.2-.85.41-1.7.61-2.54l11.62,2.76c-.21.87-.42,1.74-.63,2.62ZM768.57,318.48c-.21-.85-.42-1.69-.64-2.54l11.57-2.96c.22.87.44,1.74.66,2.61l-11.59,2.89ZM778.44,507.61l-11.54-3.08c.22-.84.45-1.69.66-2.53l11.56,3.01c-.23.87-.45,1.74-.69,2.6ZM766.6,310.9c-.23-.84-.46-1.68-.69-2.52l11.51-3.2c.24.87.48,1.73.71,2.6l-11.53,3.13ZM776.27,515.4l-11.47-3.33c.24-.84.49-1.67.72-2.51l11.49,3.25c-.24.87-.49,1.73-.74,2.59ZM764.47,303.36c-.25-.84-.5-1.67-.75-2.51l11.44-3.45c.26.86.52,1.72.77,2.58l-11.46,3.38ZM773.93,523.15l-11.4-3.57c.26-.83.52-1.66.77-2.5l11.42,3.5c-.26.86-.53,1.71-.8,2.57ZM762.17,295.84c-.27-.83-.53-1.67-.8-2.5l11.36-3.7c.28.86.55,1.71.83,2.58l-11.38,3.62ZM771.42,530.84l-11.32-3.81c.28-.83.56-1.65.83-2.48l11.35,3.73c-.28.86-.57,1.71-.85,2.56ZM759.71,288.37c-.28-.83-.57-1.65-.85-2.48l11.28-3.94c.3.85.59,1.71.88,2.56l-11.31,3.85ZM768.75,538.48l-11.23-4.06c.29-.82.59-1.64.88-2.46l11.26,3.98c-.3.85-.6,1.69-.91,2.54ZM757.09,280.95c-.3-.82-.6-1.64-.9-2.46l11.19-4.18c.32.85.63,1.69.94,2.54l-11.22,4.09ZM765.93,546.05l-11.15-4.29c.31-.82.62-1.63.93-2.44l11.17,4.22c-.32.84-.64,1.68-.96,2.51ZM754.32,273.59c-.32-.81-.64-1.63-.96-2.44l11.1-4.42c.33.84.66,1.68.99,2.52l-11.13,4.34ZM762.93,553.57l-11.05-4.54c.33-.81.66-1.61.98-2.42l11.08,4.46c-.34.84-.67,1.67-1.02,2.5ZM751.39,266.3c-.33-.8-.67-1.61-1.01-2.41l10.99-4.67c.36.84.71,1.67,1.05,2.51l-11.04,4.57ZM759.8,560.99l-10.96-4.77c.35-.79.69-1.59,1.03-2.39l10.98,4.69c-.35.82-.71,1.65-1.06,2.46ZM748.31,259.07c-.36-.8-.71-1.6-1.07-2.4l10.9-4.87c.37.82.73,1.64,1.09,2.46l-10.93,4.81ZM756.51,568.35l-10.85-5c.37-.79.72-1.58,1.09-2.38l10.88,4.94c-.37.81-.74,1.62-1.11,2.43ZM745.06,251.91c-.37-.79-.74-1.59-1.11-2.38l10.8-5.1c.38.81.77,1.62,1.14,2.44l-10.83,5.04ZM753.06,575.63l-10.74-5.22c.38-.78.76-1.57,1.13-2.35l10.77,5.16c-.39.81-.77,1.61-1.16,2.41ZM741.68,244.82c-.39-.79-.78-1.57-1.17-2.35l10.69-5.33c.4.8.8,1.61,1.2,2.41l-10.72,5.27ZM749.46,582.84l-10.63-5.45c.4-.77.79-1.55,1.18-2.32l10.67,5.38c-.41.8-.81,1.6-1.22,2.39ZM738.14,237.81c-.4-.78-.81-1.55-1.22-2.33l10.57-5.56c.41.79.83,1.59,1.24,2.39l-10.6,5.5ZM745.71,589.98l-10.51-5.67c.41-.77.82-1.53,1.23-2.3l10.55,5.6c-.42.79-.84,1.58-1.26,2.37ZM734.45,230.87c-.42-.77-.84-1.53-1.26-2.29l10.45-5.78c.44.79.87,1.58,1.3,2.37l-10.49,5.71ZM741.8,597.04l-10.39-5.9c.43-.75.85-1.5,1.27-2.26l10.44,5.8c-.44.79-.88,1.57-1.32,2.35ZM730.62,224.02c-.43-.76-.87-1.51-1.31-2.26l10.32-6.01c.45.78.9,1.56,1.35,2.34l-10.36,5.94ZM737.75,604.01l-10.26-6.11c.44-.75.88-1.5,1.33-2.25l10.3,6.04c-.45.77-.91,1.54-1.36,2.31ZM726.65,217.25c-.45-.74-.9-1.49-1.35-2.23l10.19-6.23c.47.77.94,1.54,1.4,2.31l-10.24,6.15ZM733.54,610.9l-10.13-6.33c.46-.74.92-1.47,1.37-2.21l10.18,6.25c-.47.77-.94,1.53-1.42,2.29ZM722.54,210.57c-.47-.74-.94-1.48-1.41-2.21l10.06-6.43c.48.76.96,1.51,1.44,2.27l-10.1,6.37ZM729.2,617.7l-10-6.54c.48-.72.95-1.45,1.41-2.18l10.05,6.45c-.49.76-.98,1.51-1.47,2.27ZM718.28,203.98c-.48-.73-.97-1.46-1.45-2.19l9.93-6.64c.5.75,1,1.49,1.49,2.24l-9.96,6.59ZM724.71,624.41l-9.85-6.75c.49-.71.98-1.44,1.46-2.15l9.91,6.67c-.5.74-1.01,1.49-1.51,2.23ZM713.89,197.47c-.5-.72-1-1.43-1.5-2.15l9.78-6.86c.52.73,1.03,1.47,1.54,2.21l-9.83,6.79ZM720.08,631.02l-9.72-6.95c.5-.71,1.01-1.41,1.51-2.12l9.77,6.87c-.52.73-1.04,1.46-1.56,2.2ZM709.36,191.07c-.51-.7-1.02-1.4-1.53-2.1l9.62-7.08c.54.73,1.07,1.46,1.59,2.19l-9.68,6.99ZM715.31,637.54l-9.57-7.15c.52-.7,1.04-1.4,1.55-2.09l9.62,7.08c-.53.72-1.06,1.44-1.6,2.16ZM704.7,184.76c-.53-.7-1.06-1.39-1.59-2.09l9.49-7.26c.55.71,1.09,1.43,1.63,2.14l-9.53,7.21ZM710.41,643.96l-9.41-7.36c.53-.68,1.06-1.37,1.59-2.05l9.47,7.28c-.55.71-1.1,1.43-1.65,2.13ZM699.91,178.55c-.54-.68-1.08-1.37-1.62-2.04l9.32-7.47c.56.7,1.12,1.41,1.68,2.12l-9.38,7.39ZM705.37,650.27l-9.25-7.55c.55-.67,1.1-1.35,1.64-2.03l9.3,7.49c-.56.7-1.12,1.4-1.69,2.09ZM694.99,172.45c-.56-.67-1.11-1.35-1.67-2.02l9.18-7.65c.57.69,1.15,1.38,1.71,2.07l-9.22,7.59ZM700.2,656.48l-9.1-7.75c.56-.66,1.13-1.33,1.69-1.99l9.15,7.68c-.58.69-1.16,1.37-1.74,2.06ZM689.94,166.45c-.57-.66-1.14-1.32-1.71-1.98l9.01-7.84c.59.68,1.18,1.36,1.76,2.04l-9.06,7.78ZM694.9,662.57l-8.93-7.93c.58-.65,1.15-1.3,1.72-1.96l8.99,7.87c-.59.67-1.18,1.35-1.78,2.02ZM684.77,160.56c-.58-.65-1.17-1.3-1.75-1.94l8.84-8.03c.6.66,1.21,1.33,1.81,2l-8.89,7.98ZM689.47,668.56l-8.76-8.12c.59-.64,1.18-1.28,1.76-1.92l8.82,8.05c-.6.66-1.21,1.33-1.82,1.98ZM679.48,154.78c-.59-.64-1.19-1.27-1.79-1.9l8.66-8.22c.62.65,1.24,1.31,1.85,1.96l-8.72,8.16ZM683.92,674.43l-8.59-8.29c.61-.63,1.21-1.26,1.81-1.89l8.65,8.24c-.62.65-1.24,1.3-1.86,1.94ZM674.06,149.11c-.61-.62-1.22-1.24-1.83-1.86l8.49-8.4c.63.64,1.26,1.28,1.89,1.92l-8.55,8.34ZM678.24,680.19l-8.42-8.47c.62-.62,1.24-1.23,1.85-1.85l8.47,8.42c-.63.64-1.27,1.27-1.9,1.9ZM668.54,143.56c-.62-.61-1.24-1.22-1.87-1.83l8.31-8.58c.65.62,1.29,1.25,1.93,1.88l-8.37,8.52ZM672.44,685.82l-8.24-8.64c.63-.6,1.26-1.2,1.89-1.81l8.29,8.59c-.64.62-1.29,1.24-1.94,1.86ZM662.89,138.12c-.63-.6-1.27-1.19-1.9-1.78l8.13-8.75c.66.61,1.31,1.23,1.97,1.85l-8.19,8.69ZM666.53,691.34l-8.05-8.82c.64-.59,1.28-1.18,1.92-1.77l8.11,8.76c-.66.61-1.32,1.22-1.99,1.83ZM657.14,132.81c-.65-.58-1.29-1.16-1.94-1.74l7.95-8.92c.67.6,1.34,1.2,2.01,1.8l-8.01,8.86ZM660.5,696.73l-7.87-8.99c.66-.57,1.31-1.15,1.96-1.73l7.93,8.93c-.67.6-1.34,1.19-2.02,1.78ZM651.28,127.62c-.66-.57-1.31-1.14-1.98-1.7l7.76-9.09c.69.59,1.37,1.17,2.05,1.76l-7.83,9.03ZM654.35,701.99l-7.68-9.15c.67-.56,1.34-1.13,2.01-1.69l7.72,9.11c-.68.58-1.36,1.15-2.05,1.73ZM645.31,122.56c-.67-.55-1.34-1.11-2.01-1.66l7.57-9.25c.69.57,1.39,1.14,2.08,1.71l-7.63,9.19ZM648.1,707.12l-7.49-9.3c.68-.55,1.36-1.1,2.03-1.65l7.54,9.26c-.69.57-1.39,1.13-2.09,1.7ZM639.23,117.62c-.68-.54-1.36-1.08-2.04-1.62l7.37-9.4c.71.55,1.42,1.11,2.12,1.67l-7.44,9.34ZM641.74,712.13l-7.29-9.46c.69-.53,1.38-1.06,2.06-1.6l7.36,9.41c-.71.55-1.42,1.11-2.13,1.66ZM633.06,112.81c-.69-.53-1.39-1.05-2.08-1.58l7.18-9.54c.72.54,1.43,1.08,2.14,1.62l-7.24,9.5ZM635.27,717l-7.08-9.62c.7-.52,1.4-1.04,2.1-1.56l7.16,9.56c-.72.54-1.44,1.08-2.17,1.61ZM626.79,108.14c-.7-.51-1.41-1.02-2.12-1.53l6.98-9.69c.73.52,1.45,1.05,2.17,1.57l-7.03,9.65ZM628.7,721.73l-6.88-9.76c.71-.5,1.43-1.01,2.14-1.52l6.94,9.72c-.73.52-1.46,1.04-2.2,1.56ZM620.42,103.59c-.71-.5-1.43-.99-2.15-1.49l6.77-9.84c.74.51,1.47,1.02,2.21,1.53l-6.83,9.8ZM622.04,726.32l-6.68-9.9c.73-.49,1.45-.98,2.17-1.47l6.73,9.87c-.74.5-1.49,1.01-2.23,1.51ZM613.95,99.19c-.72-.48-1.45-.96-2.17-1.44l6.55-9.98c.75.49,1.5.99,2.24,1.49l-6.62,9.94ZM615.27,730.78l-6.46-10.05c.73-.47,1.46-.95,2.19-1.42l6.54,10c-.75.49-1.51.98-2.27,1.47ZM607.4,94.92c-.73-.47-1.46-.93-2.2-1.39l6.34-10.12c.76.48,1.52.96,2.27,1.44l-6.42,10.08ZM608.41,735.08l-6.25-10.18c.75-.46,1.49-.92,2.23-1.38l6.31,10.14c-.76.47-1.53.95-2.29,1.42ZM600.77,90.79c-.75-.45-1.49-.9-2.23-1.35l6.14-10.25c.77.46,1.53.92,2.3,1.39l-6.2,10.21ZM601.46,739.25l-6.03-10.31c.75-.44,1.5-.88,2.25-1.33l6.11,10.26c-.77.46-1.55.92-2.33,1.37ZM594.04,86.8c-.75-.43-1.5-.87-2.26-1.3l5.91-10.38c.78.44,1.56.89,2.33,1.34l-5.99,10.34ZM594.42,743.27l-5.81-10.44c.76-.42,1.52-.85,2.28-1.28l5.89,10.39c-.78.44-1.57.88-2.36,1.32ZM587.24,82.96c-.76-.42-1.52-.84-2.29-1.25l5.7-10.5c.79.43,1.57.86,2.35,1.29l-5.76,10.46ZM587.3,747.13l-5.58-10.56c.77-.41,1.53-.81,2.3-1.23l5.68,10.5c-.8.43-1.59.86-2.39,1.28ZM580.36,79.26c-.77-.4-1.54-.8-2.31-1.2l5.47-10.62c.8.41,1.59.82,2.38,1.24l-5.54,10.58ZM580.09,750.85l-5.36-10.68c.78-.39,1.55-.79,2.33-1.18l5.45,10.63c-.8.41-1.61.82-2.42,1.22ZM573.41,75.7c-.78-.39-1.55-.77-2.33-1.15l5.24-10.73c.81.39,1.61.79,2.41,1.19l-5.32,10.69ZM572.81,754.41l-5.13-10.79c.79-.37,1.57-.75,2.35-1.13l5.22,10.74c-.81.4-1.63.79-2.44,1.18ZM566.38,72.3c-.78-.37-1.56-.74-2.35-1.1l5-10.85c.82.38,1.63.76,2.44,1.14l-5.09,10.8ZM565.45,757.82l-4.9-10.89c.79-.36,1.59-.72,2.38-1.08l4.99,10.85c-.82.38-1.64.75-2.46,1.12ZM559.29,69.05c-.8-.35-1.59-.7-2.39-1.05l4.79-10.94c.82.36,1.63.72,2.45,1.08l-4.86,10.91ZM558.02,761.07l-4.68-10.99c.81-.34,1.61-.69,2.42-1.04l4.74,10.96c-.83.36-1.65.71-2.48,1.06ZM552.12,65.94c-.8-.34-1.6-.67-2.4-1l4.55-11.04c.83.34,1.65.69,2.48,1.03l-4.63,11.01ZM550.51,764.17l-4.43-11.09c.81-.32,1.62-.65,2.43-.98l4.51,11.06c-.84.34-1.67.68-2.51,1.01ZM544.88,62.99c-.81-.32-1.63-.64-2.44-.96l4.32-11.13c.83.32,1.67.65,2.51.98l-4.39,11.11ZM542.95,767.1l-4.2-11.18c.82-.3,1.63-.62,2.44-.93l4.29,11.14c-.84.33-1.69.65-2.54.96ZM537.57,60.18c-.82-.3-1.64-.6-2.46-.9l4.09-11.22c.84.31,1.69.62,2.52.93l-4.16,11.2ZM535.31,769.88l-3.95-11.27c.82-.29,1.64-.58,2.46-.87l4.06,11.23c-.86.31-1.71.61-2.57.91ZM530.19,57.53c-.82-.29-1.65-.57-2.47-.85l3.84-11.31c.85.29,1.7.58,2.55.87l-3.92,11.28ZM527.62,772.49l-3.71-11.35c.83-.27,1.66-.54,2.48-.82l3.8,11.32c-.86.29-1.72.57-2.58.85ZM522.76,55.04c-.83-.27-1.66-.53-2.49-.8l3.6-11.39c.86.27,1.71.54,2.56.82l-3.68,11.36ZM519.88,774.93l-3.48-11.43c.84-.25,1.68-.51,2.51-.78l3.55,11.41c-.86.27-1.72.53-2.58.8ZM515.28,52.7c-.83-.25-1.67-.5-2.5-.74l3.35-11.46c.87.25,1.73.51,2.59.77l-3.44,11.44ZM512.12,777.2l-3.24-11.5c.84-.24,1.68-.48,2.52-.72l3.31,11.48c-.86.25-1.72.49-2.59.74ZM507.76,50.53c-.84-.23-1.68-.46-2.52-.69l3.12-11.53c.87.24,1.74.47,2.6.71l-3.2,11.51ZM504.31,779.3l-2.99-11.56c.84-.22,1.69-.44,2.53-.66l3.06,11.54c-.87.23-1.73.46-2.6.68ZM500.19,48.51c-.84-.21-1.68-.42-2.53-.63l2.86-11.6c.88.22,1.75.44,2.62.66l-2.95,11.57ZM496.45,781.24l-2.74-11.62c.85-.2,1.69-.4,2.54-.61l2.82,11.61c-.87.21-1.74.42-2.62.63ZM492.58,46.66c-.85-.2-1.7-.39-2.54-.58l2.61-11.65c.88.2,1.76.4,2.63.6l-2.7,11.63ZM488.56,783.02l-2.48-11.68c.85-.18,1.7-.37,2.55-.55l2.57,11.66c-.88.2-1.76.39-2.64.57ZM484.93,44.97c-.85-.18-1.71-.35-2.56-.53l2.37-11.71c.88.18,1.76.36,2.64.54l-2.45,11.69ZM480.63,784.62l-2.24-11.73c.86-.16,1.71-.33,2.56-.5l2.33,11.72c-.88.17-1.77.35-2.65.51ZM477.24,43.44c-.85-.16-1.71-.32-2.57-.47l2.13-11.75c.88.16,1.77.32,2.65.49l-2.21,11.74ZM472.67,786.05l-2-11.78c.86-.15,1.71-.29,2.57-.45l2.08,11.76c-.88.16-1.77.31-2.66.46ZM469.53,42.08c-.86-.14-1.72-.28-2.58-.42l1.87-11.79c.89.14,1.77.28,2.66.43l-1.95,11.78ZM464.68,787.32l-1.75-11.81c.86-.13,1.73-.26,2.59-.39l1.82,11.8c-.89.14-1.77.27-2.66.4ZM461.78,40.87c-.86-.12-1.72-.24-2.59-.36l1.62-11.83c.89.12,1.78.25,2.67.38l-1.71,11.82ZM456.66,788.41l-1.49-11.85c.87-.11,1.73-.22,2.59-.34l1.58,11.84c-.89.12-1.78.24-2.68.35ZM454.02,39.84c-.86-.11-1.73-.21-2.6-.31l1.38-11.86c.89.1,1.78.21,2.67.32l-1.45,11.86ZM448.63,789.34l-1.24-11.88c.86-.09,1.73-.19,2.59-.28l1.33,11.87c-.89.1-1.79.2-2.68.29ZM446.23,38.96c-.87-.09-1.73-.17-2.6-.25l1.12-11.89c.89.09,1.79.17,2.69.26l-1.21,11.88ZM440.58,790.1l-1-11.9c.86-.07,1.73-.15,2.6-.23l1.09,11.89c-.9.08-1.79.16-2.69.24ZM438.43,38.25c-.87-.07-1.74-.14-2.6-.2l.87-11.91c.9.07,1.79.14,2.69.21l-.95,11.91ZM432.52,790.69l-.75-11.92c.87-.05,1.74-.11,2.61-.17l.82,11.92c-.89.06-1.79.12-2.68.18ZM430.61,37.71c-.87-.05-1.74-.1-2.61-.15l.62-11.93c.9.05,1.8.1,2.7.15l-.71,11.92ZM424.44,791.11l-.49-11.93c.87-.04,1.74-.07,2.61-.12l.58,11.93c-.9.04-1.8.08-2.7.12ZM422.78,37.33c-.87-.03-1.74-.06-2.6-.09l.38-11.94c.9.03,1.79.06,2.69.09l-.46,11.94ZM416.36,791.36l-.24-11.94c.87-.02,1.74-.04,2.61-.06l.33,11.94c-.9.03-1.8.05-2.7.07ZM414.96,37.11c-.87-.02-1.74-.03-2.61-.04l.13-11.94c.9,0,1.79.02,2.69.04l-.21,11.94ZM408.28,791.44v-11.94c.87,0,1.74,0,2.61,0l.09,11.94c-.9,0-1.8,0-2.7,0ZM404.51,37.07l-.11-11.94c.9,0,1.8-.01,2.69-.02l.04,11.94c-.87,0-1.75,0-2.62.02ZM405.25,791.43c-.9,0-1.8-.02-2.7-.03l.17-11.94c.87,0,1.74.02,2.61.03l-.09,11.95ZM396.68,37.22l-.37-11.94c.9-.03,1.8-.05,2.7-.07l.28,11.94c-.87.02-1.74.04-2.61.07ZM397.17,791.28c-.9-.03-1.79-.05-2.69-.09l.42-11.94c.87.03,1.73.06,2.6.08l-.33,11.94ZM388.85,37.55l-.61-11.93c.9-.05,1.79-.09,2.69-.13l.53,11.93c-.87.04-1.74.08-2.61.13ZM389.09,790.97c-.9-.04-1.79-.09-2.69-.14l.66-11.93c.87.05,1.75.1,2.62.14l-.59,11.93ZM381.03,38.03l-.87-11.91c.9-.07,1.79-.13,2.69-.18l.78,11.92c-.87.06-1.74.12-2.6.18ZM381.02,790.49c-.9-.06-1.79-.13-2.69-.2l.93-11.91c.87.07,1.73.13,2.6.19l-.84,11.92ZM373.22,38.68l-1.11-11.89c.89-.08,1.79-.16,2.68-.24l1.03,11.9c-.87.08-1.74.15-2.6.23ZM372.96,789.84c-.9-.08-1.79-.17-2.68-.26l1.17-11.89c.86.09,1.73.17,2.6.25l-1.08,11.89ZM365.42,39.49l-1.36-11.87c.89-.1,1.79-.2,2.68-.3l1.28,11.87c-.87.09-1.73.19-2.59.29ZM364.92,789.01c-.89-.1-1.79-.2-2.68-.31l1.42-11.86c.86.1,1.73.2,2.59.3l-1.33,11.87ZM357.65,40.47l-1.61-11.84c.89-.12,1.78-.24,2.67-.36l1.53,11.85c-.86.11-1.73.23-2.59.34ZM356.89,788.02c-.89-.12-1.78-.24-2.66-.37l1.66-11.83c.87.12,1.73.24,2.59.36l-1.59,11.84ZM349.9,41.61l-1.86-11.8c.89-.14,1.77-.28,2.66-.41l1.78,11.81c-.86.13-1.72.26-2.58.4ZM348.89,786.87c-.89-.14-1.78-.28-2.67-.42l1.93-11.79c.86.14,1.72.28,2.58.41l-1.84,11.8ZM342.17,42.91l-2.11-11.75c.88-.16,1.77-.31,2.65-.47l2.03,11.77c-.86.15-1.72.3-2.57.45ZM340.91,785.54c-.89-.16-1.77-.32-2.66-.48l2.17-11.74c.86.16,1.71.31,2.57.46l-2.08,11.76ZM334.48,44.38l-2.36-11.71c.88-.18,1.76-.35,2.64-.52l2.28,11.72c-.86.17-1.71.33-2.56.51ZM332.96,784.04c-.88-.18-1.77-.36-2.65-.54l2.42-11.7c.85.18,1.7.35,2.56.52l-2.33,11.72ZM326.81,46.01l-2.61-11.66c.88-.2,1.75-.39,2.63-.58l2.53,11.67c-.85.19-1.7.37-2.55.56ZM325.04,782.37c-.88-.2-1.75-.39-2.63-.59l2.66-11.64c.85.2,1.7.39,2.55.57l-2.58,11.66ZM319.19,47.81l-2.86-11.6c.87-.21,1.75-.43,2.62-.64l2.77,11.62c-.85.2-1.69.41-2.54.62ZM317.16,780.54c-.87-.21-1.74-.43-2.61-.65l2.91-11.58c.84.21,1.69.42,2.54.63l-2.83,11.6ZM311.6,49.76l-3.11-11.53c.87-.23,1.74-.47,2.61-.69l3.02,11.56c-.84.22-1.68.44-2.52.67ZM309.33,778.54c-.87-.23-1.73-.47-2.6-.7l3.15-11.52c.84.23,1.68.46,2.52.68l-3.08,11.54ZM304.05,51.87l-3.35-11.46c.86-.25,1.73-.5,2.59-.75l3.26,11.49c-.84.24-1.67.48-2.51.72ZM301.54,776.37c-.86-.25-1.73-.5-2.58-.76l3.4-11.45c.84.25,1.67.49,2.51.74l-3.32,11.47ZM296.55,54.16l-3.59-11.39c.86-.27,1.72-.54,2.59-.8l3.51,11.42c-.84.26-1.67.52-2.5.78ZM293.79,774.04c-.86-.27-1.71-.54-2.57-.81l3.64-11.38c.83.27,1.66.53,2.5.79l-3.57,11.4ZM289.07,56.6l-3.84-11.31c.86-.29,1.71-.58,2.57-.86l3.75,11.34c-.83.28-1.66.55-2.49.83ZM286.1,771.55c-.85-.29-1.71-.58-2.56-.87l3.89-11.29c.82.28,1.64.56,2.47.84l-3.8,11.32ZM281.64,59.21l-4.07-11.23c.85-.31,1.69-.61,2.54-.91l4,11.26c-.83.29-1.65.59-2.47.89ZM278.46,768.89c-.85-.3-1.7-.61-2.54-.93l4.13-11.21c.81.3,1.63.6,2.44.89l-4.03,11.24ZM274.28,61.96l-4.32-11.14c.84-.33,1.68-.65,2.53-.97l4.23,11.17c-.82.31-1.63.62-2.45.94ZM270.87,766.06c-.84-.32-1.68-.65-2.51-.97l4.36-11.12c.81.32,1.62.63,2.44.95l-4.29,11.15ZM266.99,64.88l-4.56-11.04c.83-.34,1.67-.68,2.51-1.02l4.47,11.08c-.81.33-1.62.66-2.42.99ZM263.35,763.08c-.83-.34-1.65-.68-2.48-1.02l4.61-11.02c.8.33,1.6.66,2.4.99l-4.53,11.05ZM259.75,67.95l-4.78-10.95c.83-.36,1.65-.72,2.48-1.07l4.71,10.98c-.8.34-1.61.69-2.41,1.04ZM255.94,759.96c-.82-.36-1.65-.71-2.47-1.08l4.83-10.92c.79.35,1.58.7,2.38,1.04l-4.74,10.96ZM252.58,71.18l-5.02-10.84c.82-.38,1.64-.75,2.46-1.13l4.94,10.87c-.8.36-1.59.73-2.38,1.09ZM248.57,756.67c-.81-.37-1.63-.75-2.44-1.13l5.06-10.82c.79.37,1.57.73,2.36,1.1l-4.99,10.85ZM245.49,74.55l-5.24-10.73c.81-.39,1.62-.79,2.43-1.18l5.17,10.77c-.79.38-1.57.76-2.36,1.14ZM241.29,753.23c-.81-.39-1.61-.79-2.41-1.18l5.29-10.71c.78.38,1.56.77,2.34,1.14l-5.21,10.75ZM238.47,78.07l-5.47-10.62c.8-.41,1.6-.82,2.41-1.23l5.39,10.66c-.78.4-1.56.79-2.33,1.19ZM234.07,749.64c-.79-.41-1.59-.82-2.38-1.23l5.51-10.6c.77.4,1.54.8,2.31,1.2l-5.44,10.63ZM231.53,81.74l-5.7-10.5c.79-.43,1.59-.86,2.38-1.28l5.62,10.54c-.77.41-1.54.82-2.3,1.24ZM226.94,745.9c-.79-.43-1.58-.86-2.37-1.29l5.74-10.47c.76.42,1.52.83,2.28,1.24l-5.65,10.52ZM224.67,85.56l-5.92-10.37c.78-.45,1.57-.89,2.35-1.33l5.84,10.42c-.76.42-1.52.85-2.28,1.29ZM219.87,742c-.78-.44-1.55-.88-2.33-1.33l5.95-10.36c.75.43,1.51.86,2.27,1.29l-5.89,10.39ZM217.89,89.52l-6.14-10.24c.77-.46,1.55-.93,2.33-1.38l6.06,10.29c-.75.44-1.5.89-2.24,1.33ZM212.9,737.95c-.77-.46-1.54-.92-2.31-1.38l6.17-10.23c.74.45,1.48.89,2.23,1.34l-6.09,10.27ZM211.2,93.62l-6.35-10.11c.76-.48,1.52-.95,2.29-1.43l6.28,10.16c-.74.46-1.48.92-2.22,1.38ZM206,733.76c-.76-.47-1.52-.95-2.28-1.43l6.38-10.09c.73.46,1.47.93,2.21,1.39l-6.32,10.13ZM204.6,97.86l-6.57-9.97c.75-.5,1.51-.99,2.27-1.48l6.49,10.03c-.73.47-1.46.95-2.19,1.43ZM199.2,729.42c-.75-.49-1.5-.98-2.25-1.48l6.59-9.96c.72.48,1.45.96,2.18,1.43l-6.52,10.01ZM198.09,102.24l-6.78-9.84c.74-.51,1.49-1.02,2.23-1.53l6.7,9.89c-.72.49-1.44.98-2.16,1.47ZM192.48,724.94c-.74-.51-1.48-1.02-2.22-1.53l6.8-9.82c.71.5,1.43.99,2.15,1.48l-6.74,9.87ZM191.67,106.76l-6.98-9.7c.73-.53,1.46-1.05,2.2-1.57l6.91,9.74c-.71.5-1.42,1.01-2.13,1.52ZM185.87,720.32c-.73-.52-1.46-1.05-2.19-1.58l7.01-9.67c.7.51,1.4,1.01,2.11,1.52l-6.93,9.73ZM185.35,111.41l-7.17-9.55c.72-.54,1.44-1.08,2.16-1.61l7.11,9.6c-.7.52-1.4,1.04-2.1,1.57ZM179.34,715.56c-.72-.54-1.44-1.07-2.15-1.62l7.2-9.52c.69.52,1.39,1.04,2.09,1.57l-7.14,9.58ZM179.13,116.19l-7.38-9.39c.71-.55,1.41-1.11,2.12-1.66l7.32,9.44c-.69.53-1.38,1.07-2.06,1.61ZM172.93,710.66c-.71-.55-1.42-1.11-2.13-1.67l7.41-9.37c.68.54,1.36,1.07,2.04,1.6l-7.33,9.43ZM173.02,121.1l-7.57-9.24c.7-.57,1.39-1.14,2.09-1.7l7.51,9.29c-.68.55-1.36,1.1-2.03,1.65ZM166.6,705.62c-.69-.57-1.39-1.13-2.08-1.7l7.6-9.21c.67.55,1.35,1.11,2.02,1.66l-7.55,9.26ZM167.01,126.13l-7.77-9.07c.68-.59,1.37-1.17,2.05-1.75l7.7,9.13c-.67.56-1.33,1.12-1.99,1.69ZM160.38,700.46c-.68-.58-1.36-1.16-2.04-1.75l7.8-9.05c.66.57,1.32,1.13,1.99,1.7l-7.74,9.1ZM161.11,131.29l-7.96-8.9c.67-.6,1.35-1.2,2.02-1.79l7.89,8.97c-.65.58-1.3,1.15-1.95,1.73ZM154.28,695.16c-.67-.59-1.34-1.19-2.01-1.79l7.99-8.88c.65.58,1.3,1.16,1.95,1.74l-7.93,8.93ZM155.32,136.57l-8.14-8.74c.66-.61,1.32-1.22,1.98-1.83l8.08,8.8c-.64.59-1.28,1.18-1.92,1.78ZM148.29,689.74c-.66-.61-1.31-1.22-1.97-1.83l8.16-8.72c.64.6,1.28,1.19,1.91,1.78l-8.11,8.77ZM149.64,141.97l-8.32-8.56c.64-.63,1.29-1.25,1.94-1.87l8.26,8.63c-.63.6-1.25,1.21-1.88,1.81ZM142.41,684.2c-.65-.62-1.29-1.25-1.93-1.88l8.35-8.54c.62.61,1.25,1.21,1.87,1.82l-8.29,8.6ZM144.08,147.49l-8.5-8.39c.63-.64,1.26-1.28,1.9-1.91l8.44,8.45c-.62.62-1.23,1.23-1.84,1.85ZM136.65,678.53c-.63-.63-1.26-1.28-1.89-1.92l8.52-8.37c.61.62,1.22,1.24,1.84,1.86l-8.47,8.42ZM138.64,153.12l-8.67-8.21c.62-.65,1.24-1.31,1.86-1.95l8.61,8.27c-.6.63-1.2,1.26-1.8,1.89ZM131.01,672.73c-.62-.65-1.24-1.3-1.85-1.96l8.7-8.18c.6.63,1.2,1.27,1.8,1.9l-8.65,8.24ZM133.31,158.87l-8.84-8.04c.6-.66,1.21-1.32,1.81-1.98l8.79,8.09c-.59.64-1.18,1.29-1.77,1.93ZM125.49,666.83c-.61-.66-1.21-1.33-1.81-1.99l8.87-8c.58.64,1.17,1.29,1.76,1.93l-8.81,8.06ZM128.11,164.72l-9.01-7.84c.59-.68,1.18-1.35,1.77-2.03l8.96,7.9c-.58.65-1.15,1.31-1.72,1.96ZM120.09,660.81c-.59-.68-1.19-1.36-1.77-2.04l9.04-7.81c.57.66,1.14,1.31,1.71,1.96l-8.98,7.88ZM123.04,170.67l-9.18-7.64c.58-.69,1.15-1.38,1.74-2.07l9.12,7.72c-.56.66-1.12,1.33-1.67,1.99ZM114.82,654.66c-.58-.69-1.15-1.38-1.73-2.07l9.2-7.62c.55.67,1.11,1.34,1.67,2l-9.15,7.69ZM118.08,176.74l-9.33-7.45c.56-.7,1.12-1.4,1.69-2.1l9.28,7.52c-.55.67-1.09,1.35-1.64,2.03ZM109.68,648.42c-.56-.7-1.13-1.4-1.69-2.11l9.36-7.42c.54.68,1.08,1.36,1.63,2.04l-9.3,7.49ZM113.26,182.91l-9.48-7.27c.55-.71,1.09-1.42,1.64-2.13l9.44,7.32c-.54.69-1.07,1.38-1.6,2.07ZM104.66,642.05c-.54-.71-1.09-1.42-1.63-2.13l9.51-7.23c.53.7,1.06,1.39,1.59,2.08l-9.47,7.28ZM108.57,189.17l-9.63-7.06c.53-.72,1.06-1.45,1.6-2.17l9.59,7.12c-.52.7-1.04,1.4-1.55,2.1ZM99.79,635.6c-.53-.72-1.06-1.45-1.59-2.18l9.66-7.02c.51.7,1.03,1.41,1.55,2.11l-9.61,7.09ZM104.02,195.53l-9.79-6.85c.52-.74,1.04-1.47,1.56-2.2l9.73,6.93c-.5.71-1,1.41-1.5,2.13ZM95.06,629.04c-.52-.73-1.04-1.47-1.55-2.21l9.8-6.82c.5.71,1,1.43,1.5,2.14l-9.75,6.89ZM99.6,201.98l-9.92-6.65c.5-.74,1-1.49,1.5-2.23l9.88,6.71c-.49.72-.97,1.44-1.46,2.16ZM90.46,622.37c-.5-.75-1-1.49-1.5-2.24l9.94-6.62c.48.73.97,1.45,1.46,2.18l-9.9,6.68ZM95.32,208.53l-10.07-6.43c.48-.76.97-1.51,1.46-2.26l10.02,6.51c-.47.73-.94,1.46-1.41,2.19ZM86,615.61c-.49-.76-.97-1.51-1.45-2.27l10.08-6.41c.47.74.94,1.47,1.41,2.21l-10.04,6.47ZM91.17,215.15l-10.2-6.22c.47-.76.94-1.53,1.41-2.29l10.15,6.29c-.46.74-.91,1.48-1.36,2.22ZM81.68,608.76c-.47-.77-.94-1.54-1.41-2.31l10.22-6.18c.45.74.9,1.49,1.36,2.23l-10.17,6.27ZM87.17,221.87l-10.33-6c.45-.78.9-1.55,1.36-2.32l10.28,6.08c-.44.75-.88,1.49-1.31,2.24ZM77.51,601.81c-.45-.78-.91-1.55-1.36-2.33l10.35-5.97c.44.76.88,1.51,1.32,2.27l-10.31,6.04ZM83.31,228.66l-10.45-5.78c.43-.79.87-1.57,1.31-2.35l10.41,5.86c-.43.75-.85,1.51-1.27,2.27ZM73.48,594.78c-.44-.79-.87-1.57-1.31-2.36l10.47-5.75c.42.77.84,1.53,1.27,2.29l-10.43,5.82ZM79.6,235.54l-10.57-5.57c.42-.79.84-1.59,1.26-2.37l10.53,5.64c-.41.77-.82,1.53-1.22,2.3ZM69.61,587.66c-.42-.8-.84-1.59-1.26-2.39l10.59-5.52c.4.77.81,1.54,1.22,2.31l-10.55,5.6ZM76.03,242.49l-10.68-5.34c.4-.8.8-1.6,1.21-2.4l10.64,5.42c-.39.77-.78,1.55-1.17,2.32ZM65.88,580.46c-.41-.8-.81-1.61-1.21-2.42l10.71-5.3c.39.78.77,1.56,1.17,2.34l-10.67,5.38ZM72.61,249.51l-10.79-5.12c.38-.81.77-1.62,1.16-2.42l10.76,5.19c-.38.78-.75,1.56-1.12,2.35ZM62.31,573.18c-.39-.81-.78-1.63-1.16-2.45l10.82-5.07c.37.79.74,1.58,1.12,2.36l-10.78,5.15ZM69.35,256.6l-10.9-4.88c.37-.82.74-1.63,1.11-2.45l10.86,4.96c-.36.79-.72,1.58-1.07,2.37ZM58.9,565.83c-.37-.82-.74-1.64-1.1-2.47l10.92-4.84c.36.8.71,1.59,1.07,2.39l-10.88,4.92ZM66.23,263.75l-11-4.66c.35-.82.7-1.64,1.05-2.47l10.97,4.73c-.34.8-.68,1.59-1.02,2.4ZM55.64,558.4c-.35-.83-.71-1.66-1.05-2.49l11.02-4.6c.33.81.67,1.61,1.02,2.41l-10.99,4.68ZM63.26,270.98l-11.1-4.42c.33-.83.67-1.67,1.01-2.51l11.06,4.5c-.33.81-.65,1.61-.97,2.42ZM52.53,550.9c-.34-.84-.67-1.68-1-2.52l11.12-4.36c.32.81.64,1.62.97,2.43l-11.08,4.45ZM60.44,278.29l-11.19-4.18c.31-.84.63-1.68.95-2.52l11.16,4.26c-.31.81-.62,1.63-.92,2.44ZM49.59,543.33c-.32-.85-.63-1.69-.95-2.54l11.21-4.13c.3.82.61,1.64.92,2.46l-11.18,4.21ZM57.78,285.66l-11.27-3.94c.3-.85.59-1.7.9-2.54l11.25,4.02c-.29.82-.58,1.64-.87,2.46ZM46.81,535.7c-.3-.85-.59-1.7-.89-2.55l11.29-3.89c.29.83.57,1.65.87,2.48l-11.27,3.96ZM55.27,293.08l-11.35-3.71c.28-.85.56-1.71.84-2.55l11.33,3.78c-.28.83-.55,1.66-.82,2.49ZM44.19,528.01c-.28-.86-.56-1.71-.84-2.57l11.38-3.65c.27.83.54,1.67.81,2.5l-11.35,3.72ZM52.92,300.55l-11.43-3.46c.26-.86.52-1.72.79-2.58l11.41,3.55c-.26.83-.51,1.66-.76,2.5ZM41.74,520.27c-.26-.86-.52-1.72-.78-2.58l11.45-3.4c.25.83.5,1.67.75,2.5l-11.42,3.49ZM50.73,308.08l-11.5-3.23c.24-.86.49-1.73.73-2.59l11.48,3.3c-.24.84-.48,1.68-.71,2.52ZM39.46,512.52c-.24-.87-.49-1.73-.72-2.61l11.52-3.15c.23.84.46,1.68.7,2.51l-11.49,3.25ZM48.7,315.64l-11.57-2.97c.22-.87.45-1.74.68-2.61l11.54,3.05c-.22.84-.44,1.68-.66,2.53ZM37.35,504.7c-.23-.87-.45-1.74-.67-2.61l11.58-2.91c.21.84.43,1.69.65,2.53l-11.56,3ZM46.83,323.25l-11.63-2.72c.21-.88.41-1.75.63-2.63l11.61,2.81c-.2.84-.41,1.69-.6,2.54ZM35.4,496.86c-.21-.88-.41-1.75-.61-2.63l11.64-2.67c.2.85.39,1.7.59,2.54l-11.62,2.76ZM45.13,330.9l-11.69-2.48c.18-.88.37-1.76.57-2.63l11.67,2.55c-.19.85-.37,1.7-.55,2.55ZM33.62,488.96c-.19-.88-.37-1.76-.56-2.64l11.7-2.42c.18.85.35,1.7.54,2.55l-11.68,2.52ZM43.58,338.58l-11.73-2.23c.17-.88.34-1.77.51-2.65l11.72,2.31c-.17.85-.33,1.71-.5,2.57ZM32.01,481.04c-.17-.88-.34-1.77-.5-2.65l11.75-2.17c.16.86.32,1.71.49,2.56l-11.73,2.26ZM42.2,346.29l-11.78-1.97c.15-.89.3-1.78.46-2.66l11.76,2.07c-.15.86-.3,1.71-.44,2.57ZM30.56,473.07c-.15-.88-.3-1.77-.44-2.66l11.79-1.92c.14.86.28,1.72.43,2.58l-11.78,2ZM40.99,354.03l-11.82-1.72c.13-.89.26-1.78.4-2.67l11.81,1.81c-.13.86-.26,1.72-.39,2.58ZM29.29,465.09c-.13-.89-.26-1.78-.39-2.67l11.82-1.67c.12.86.25,1.72.38,2.58l-11.81,1.76ZM39.93,361.79l-11.85-1.48c.11-.89.23-1.79.34-2.68l11.84,1.57c-.11.86-.22,1.73-.33,2.59ZM28.19,457.08c-.11-.89-.22-1.78-.33-2.67l11.86-1.43c.1.87.21,1.73.32,2.59l-11.85,1.5ZM39.04,369.58l-11.88-1.23c.09-.89.19-1.79.29-2.68l11.87,1.31c-.1.87-.19,1.73-.28,2.6ZM27.25,449.05c-.09-.89-.19-1.79-.28-2.68l11.89-1.17c.08.87.17,1.73.27,2.59l-11.88,1.26ZM38.32,377.38l-11.9-.98c.07-.9.15-1.79.23-2.68l11.89,1.06c-.08.87-.15,1.74-.22,2.6ZM26.49,440.99c-.08-.89-.15-1.79-.22-2.68l11.91-.93c.07.87.14,1.74.21,2.61l-11.9,1.01ZM37.76,385.2l-11.92-.74c.05-.9.11-1.79.17-2.69l11.92.81c-.06.87-.11,1.74-.17,2.61ZM25.89,432.93c-.06-.9-.11-1.79-.16-2.69l11.92-.67c.05.87.1,1.74.16,2.61l-11.92.75ZM37.36,393.03l-11.93-.48c.04-.9.07-1.8.12-2.69l11.93.57c-.04.87-.08,1.74-.11,2.61ZM25.46,424.85c-.04-.9-.07-1.79-.11-2.69l11.94-.43c.03.87.07,1.74.1,2.61l-11.93.51ZM37.12,400.84l-11.94-.24c.02-.9.04-1.79.06-2.69l11.94.32c-.02.87-.04,1.74-.06,2.61ZM25.2,416.77c-.02-.9-.04-1.8-.05-2.7l11.94-.17c.01.87.03,1.74.05,2.61l-11.94.26ZM37.05,408.27v.41h-11.95v-.41c0-.76,0-1.52,0-2.28l11.95.07c0,.73,0,1.47,0,2.21Z"/>
        </g>
      </g>
    </g>
  </g>
</svg>